<mxfile host="drawio-plugin" modified="2024-06-11T11:03:49.585Z" agent="5.0 (Windows NT 6.2; Win64; x64) AppleWebKit/537.36 (KHTML, like Gecko) Chrome/89.0.4389.114 Safari/537.36" etag="ztksf-ruX5JzxDxprCTF" version="20.5.3" type="embed"><diagram id="C5RBs43oDa-KdzZeNtuy" name="界面类"><mxGraphModel dx="1267" dy="376" grid="1" gridSize="10" guides="1" tooltips="1" connect="1" arrows="1" fold="1" page="1" pageScale="1" pageWidth="827" pageHeight="1169" math="0" shadow="0"><root><mxCell id="WIyWlLk6GJQsqaUBKTNV-0"/><mxCell id="WIyWlLk6GJQsqaUBKTNV-1" parent="WIyWlLk6GJQsqaUBKTNV-0"/><mxCell id="zkfFHV4jXpPFQw0GAbJ--0" value="/index主页" style="swimlane;fontStyle=0;align=center;verticalAlign=middle;childLayout=stackLayout;horizontal=1;startSize=26;horizontalStack=0;resizeParent=1;resizeLast=0;collapsible=1;marginBottom=0;rounded=0;shadow=0;strokeWidth=1;fontFamily=Helvetica;fontSize=12;" parent="WIyWlLk6GJQsqaUBKTNV-1" vertex="1"><mxGeometry x="-10" y="352" width="160" height="216" as="geometry"><mxRectangle x="230" y="140" width="160" height="26" as="alternateBounds"/></mxGeometry></mxCell><mxCell id="zkfFHV4jXpPFQw0GAbJ--1" value="- str: 账户" style="text;align=left;verticalAlign=middle;spacingLeft=4;spacingRight=4;overflow=hidden;rotatable=0;points=[[0,0.5],[1,0.5]];portConstraint=eastwest;fontFamily=Helvetica;fontSize=12;" parent="zkfFHV4jXpPFQw0GAbJ--0" vertex="1"><mxGeometry y="26" width="160" height="26" as="geometry"/></mxCell><mxCell id="zkfFHV4jXpPFQw0GAbJ--2" value="- str: 密码" style="text;align=left;verticalAlign=middle;spacingLeft=4;spacingRight=4;overflow=hidden;rotatable=0;points=[[0,0.5],[1,0.5]];portConstraint=eastwest;rounded=0;shadow=0;html=0;fontFamily=Helvetica;fontSize=12;" parent="zkfFHV4jXpPFQw0GAbJ--0" vertex="1"><mxGeometry y="52" width="160" height="26" as="geometry"/></mxCell><mxCell id="zkfFHV4jXpPFQw0GAbJ--3" value="- str: 邮箱" style="text;align=left;verticalAlign=middle;spacingLeft=4;spacingRight=4;overflow=hidden;rotatable=0;points=[[0,0.5],[1,0.5]];portConstraint=eastwest;rounded=0;shadow=0;html=0;fontFamily=Helvetica;fontSize=12;" parent="zkfFHV4jXpPFQw0GAbJ--0" vertex="1"><mxGeometry y="78" width="160" height="26" as="geometry"/></mxCell><mxCell id="_SCDaBS0Un0cS2Lp7n6x-0" value="- str: 电话" style="text;align=left;verticalAlign=middle;spacingLeft=4;spacingRight=4;overflow=hidden;rotatable=0;points=[[0,0.5],[1,0.5]];portConstraint=eastwest;rounded=0;shadow=0;html=0;fontFamily=Helvetica;fontSize=12;" parent="zkfFHV4jXpPFQw0GAbJ--0" vertex="1"><mxGeometry y="104" width="160" height="26" as="geometry"/></mxCell><mxCell id="zkfFHV4jXpPFQw0GAbJ--4" value="" style="line;html=1;strokeWidth=1;align=left;verticalAlign=middle;spacingTop=-1;spacingLeft=3;spacingRight=3;rotatable=0;labelPosition=right;points=[];portConstraint=eastwest;fontFamily=Helvetica;fontSize=12;" parent="zkfFHV4jXpPFQw0GAbJ--0" vertex="1"><mxGeometry y="130" width="160" height="8" as="geometry"/></mxCell><mxCell id="zkfFHV4jXpPFQw0GAbJ--5" value="+ 登录();" style="text;align=left;verticalAlign=middle;spacingLeft=4;spacingRight=4;overflow=hidden;rotatable=0;points=[[0,0.5],[1,0.5]];portConstraint=eastwest;fontFamily=Helvetica;fontSize=12;" parent="zkfFHV4jXpPFQw0GAbJ--0" vertex="1"><mxGeometry y="138" width="160" height="26" as="geometry"/></mxCell><mxCell id="_SCDaBS0Un0cS2Lp7n6x-1" value="+ 注册();" style="text;align=left;verticalAlign=middle;spacingLeft=4;spacingRight=4;overflow=hidden;rotatable=0;points=[[0,0.5],[1,0.5]];portConstraint=eastwest;fontFamily=Helvetica;fontSize=12;" parent="zkfFHV4jXpPFQw0GAbJ--0" vertex="1"><mxGeometry y="164" width="160" height="26" as="geometry"/></mxCell><mxCell id="_SCDaBS0Un0cS2Lp7n6x-2" value="+ 忘记密码();" style="text;align=left;verticalAlign=middle;spacingLeft=4;spacingRight=4;overflow=hidden;rotatable=0;points=[[0,0.5],[1,0.5]];portConstraint=eastwest;fontFamily=Helvetica;fontSize=12;" parent="zkfFHV4jXpPFQw0GAbJ--0" vertex="1"><mxGeometry y="190" width="160" height="26" as="geometry"/></mxCell><mxCell id="zkfFHV4jXpPFQw0GAbJ--17" value="/home主页" style="swimlane;fontStyle=0;align=center;verticalAlign=middle;childLayout=stackLayout;horizontal=1;startSize=26;horizontalStack=0;resizeParent=1;resizeLast=0;collapsible=1;marginBottom=0;rounded=0;shadow=0;strokeWidth=1;fontFamily=Helvetica;fontSize=12;" parent="WIyWlLk6GJQsqaUBKTNV-1" vertex="1"><mxGeometry x="40" y="618" width="160" height="242" as="geometry"><mxRectangle x="550" y="140" width="160" height="26" as="alternateBounds"/></mxGeometry></mxCell><mxCell id="zkfFHV4jXpPFQw0GAbJ--18" value="- dict: 注册用户" style="text;align=left;verticalAlign=middle;spacingLeft=4;spacingRight=4;overflow=hidden;rotatable=0;points=[[0,0.5],[1,0.5]];portConstraint=eastwest;fontFamily=Helvetica;fontSize=12;" parent="zkfFHV4jXpPFQw0GAbJ--17" vertex="1"><mxGeometry y="26" width="160" height="26" as="geometry"/></mxCell><mxCell id="_SCDaBS0Un0cS2Lp7n6x-17" value="+ list: 圈子预览" style="text;align=left;verticalAlign=middle;spacingLeft=4;spacingRight=4;overflow=hidden;rotatable=0;points=[[0,0.5],[1,0.5]];portConstraint=eastwest;fontFamily=Helvetica;fontSize=12;" parent="zkfFHV4jXpPFQw0GAbJ--17" vertex="1"><mxGeometry y="52" width="160" height="26" as="geometry"/></mxCell><mxCell id="zkfFHV4jXpPFQw0GAbJ--23" value="" style="line;html=1;strokeWidth=1;align=left;verticalAlign=middle;spacingTop=-1;spacingLeft=3;spacingRight=3;rotatable=0;labelPosition=right;points=[];portConstraint=eastwest;fontFamily=Helvetica;fontSize=12;" parent="zkfFHV4jXpPFQw0GAbJ--17" vertex="1"><mxGeometry y="78" width="160" height="8" as="geometry"/></mxCell><mxCell id="zkfFHV4jXpPFQw0GAbJ--25" value="+ 信息详情页();" style="text;align=left;verticalAlign=middle;spacingLeft=4;spacingRight=4;overflow=hidden;rotatable=0;points=[[0,0.5],[1,0.5]];portConstraint=eastwest;fontFamily=Helvetica;fontSize=12;" parent="zkfFHV4jXpPFQw0GAbJ--17" vertex="1"><mxGeometry y="86" width="160" height="26" as="geometry"/></mxCell><mxCell id="_SCDaBS0Un0cS2Lp7n6x-20" value="+ 书籍页();" style="text;align=left;verticalAlign=middle;spacingLeft=4;spacingRight=4;overflow=hidden;rotatable=0;points=[[0,0.5],[1,0.5]];portConstraint=eastwest;fontFamily=Helvetica;fontSize=12;" parent="zkfFHV4jXpPFQw0GAbJ--17" vertex="1"><mxGeometry y="112" width="160" height="26" as="geometry"/></mxCell><mxCell id="_SCDaBS0Un0cS2Lp7n6x-21" value="+ 个人简历页();" style="text;align=left;verticalAlign=middle;spacingLeft=4;spacingRight=4;overflow=hidden;rotatable=0;points=[[0,0.5],[1,0.5]];portConstraint=eastwest;fontFamily=Helvetica;fontSize=12;" parent="zkfFHV4jXpPFQw0GAbJ--17" vertex="1"><mxGeometry y="138" width="160" height="26" as="geometry"/></mxCell><mxCell id="_SCDaBS0Un0cS2Lp7n6x-22" value="+ 书评页();" style="text;align=left;verticalAlign=middle;spacingLeft=4;spacingRight=4;overflow=hidden;rotatable=0;points=[[0,0.5],[1,0.5]];portConstraint=eastwest;fontFamily=Helvetica;fontSize=12;" parent="zkfFHV4jXpPFQw0GAbJ--17" vertex="1"><mxGeometry y="164" width="160" height="26" as="geometry"/></mxCell><mxCell id="cIUitprs8CScgekG14FF-29" value="+ 创建圈子();" style="text;align=left;verticalAlign=middle;spacingLeft=4;spacingRight=4;overflow=hidden;rotatable=0;points=[[0,0.5],[1,0.5]];portConstraint=eastwest;fontFamily=Helvetica;fontSize=12;" parent="zkfFHV4jXpPFQw0GAbJ--17" vertex="1"><mxGeometry y="190" width="160" height="26" as="geometry"/></mxCell><mxCell id="_SCDaBS0Un0cS2Lp7n6x-23" value="+ 圈子页();" style="text;align=left;verticalAlign=middle;spacingLeft=4;spacingRight=4;overflow=hidden;rotatable=0;points=[[0,0.5],[1,0.5]];portConstraint=eastwest;fontFamily=Helvetica;fontSize=12;" parent="zkfFHV4jXpPFQw0GAbJ--17" vertex="1"><mxGeometry y="216" width="160" height="26" as="geometry"/></mxCell><mxCell id="_SCDaBS0Un0cS2Lp7n6x-4" value="/findPassword找回密码" style="swimlane;fontStyle=0;align=center;verticalAlign=middle;childLayout=stackLayout;horizontal=1;startSize=26;horizontalStack=0;resizeParent=1;resizeLast=0;collapsible=1;marginBottom=0;rounded=0;shadow=0;strokeWidth=1;fontFamily=Helvetica;fontSize=12;" parent="WIyWlLk6GJQsqaUBKTNV-1" vertex="1"><mxGeometry x="-260" y="404" width="160" height="164" as="geometry"><mxRectangle x="230" y="140" width="160" height="26" as="alternateBounds"/></mxGeometry></mxCell><mxCell id="_SCDaBS0Un0cS2Lp7n6x-5" value="+ str: 账户" style="text;align=left;verticalAlign=middle;spacingLeft=4;spacingRight=4;overflow=hidden;rotatable=0;points=[[0,0.5],[1,0.5]];portConstraint=eastwest;fontFamily=Helvetica;fontSize=12;" parent="_SCDaBS0Un0cS2Lp7n6x-4" vertex="1"><mxGeometry y="26" width="160" height="26" as="geometry"/></mxCell><mxCell id="_SCDaBS0Un0cS2Lp7n6x-6" value="+ str: 密码" style="text;align=left;verticalAlign=middle;spacingLeft=4;spacingRight=4;overflow=hidden;rotatable=0;points=[[0,0.5],[1,0.5]];portConstraint=eastwest;rounded=0;shadow=0;html=0;fontFamily=Helvetica;fontSize=12;" parent="_SCDaBS0Un0cS2Lp7n6x-4" vertex="1"><mxGeometry y="52" width="160" height="26" as="geometry"/></mxCell><mxCell id="_SCDaBS0Un0cS2Lp7n6x-8" value="+ str: 邮箱" style="text;align=left;verticalAlign=middle;spacingLeft=4;spacingRight=4;overflow=hidden;rotatable=0;points=[[0,0.5],[1,0.5]];portConstraint=eastwest;rounded=0;shadow=0;html=0;fontFamily=Helvetica;fontSize=12;" parent="_SCDaBS0Un0cS2Lp7n6x-4" vertex="1"><mxGeometry y="78" width="160" height="26" as="geometry"/></mxCell><mxCell id="_SCDaBS0Un0cS2Lp7n6x-7" value="+ str: 验证码" style="text;align=left;verticalAlign=middle;spacingLeft=4;spacingRight=4;overflow=hidden;rotatable=0;points=[[0,0.5],[1,0.5]];portConstraint=eastwest;rounded=0;shadow=0;html=0;fontFamily=Helvetica;fontSize=12;" parent="_SCDaBS0Un0cS2Lp7n6x-4" vertex="1"><mxGeometry y="104" width="160" height="26" as="geometry"/></mxCell><mxCell id="_SCDaBS0Un0cS2Lp7n6x-9" value="" style="line;html=1;strokeWidth=1;align=left;verticalAlign=middle;spacingTop=-1;spacingLeft=3;spacingRight=3;rotatable=0;labelPosition=right;points=[];portConstraint=eastwest;fontFamily=Helvetica;fontSize=12;" parent="_SCDaBS0Un0cS2Lp7n6x-4" vertex="1"><mxGeometry y="130" width="160" height="8" as="geometry"/></mxCell><mxCell id="_SCDaBS0Un0cS2Lp7n6x-13" value="+ 找回密码();" style="text;align=left;verticalAlign=middle;spacingLeft=4;spacingRight=4;overflow=hidden;rotatable=0;points=[[0,0.5],[1,0.5]];portConstraint=eastwest;fontFamily=Helvetica;fontSize=12;" parent="_SCDaBS0Un0cS2Lp7n6x-4" vertex="1"><mxGeometry y="138" width="160" height="26" as="geometry"/></mxCell><mxCell id="_SCDaBS0Un0cS2Lp7n6x-15" style="edgeStyle=orthogonalEdgeStyle;rounded=0;orthogonalLoop=1;jettySize=auto;html=1;entryX=1;entryY=0.5;entryDx=0;entryDy=0;exitX=1;exitY=0.5;exitDx=0;exitDy=0;fontFamily=Helvetica;fontSize=12;align=center;verticalAlign=middle;" parent="WIyWlLk6GJQsqaUBKTNV-1" source="zkfFHV4jXpPFQw0GAbJ--5" target="zkfFHV4jXpPFQw0GAbJ--25" edge="1"><mxGeometry relative="1" as="geometry"/></mxCell><mxCell id="_SCDaBS0Un0cS2Lp7n6x-16" value="登录成功" style="edgeLabel;html=1;align=center;verticalAlign=middle;resizable=0;points=[];fontFamily=Helvetica;fontSize=12;" parent="_SCDaBS0Un0cS2Lp7n6x-15" vertex="1" connectable="0"><mxGeometry x="-0.228" relative="1" as="geometry"><mxPoint y="-16" as="offset"/></mxGeometry></mxCell><mxCell id="_SCDaBS0Un0cS2Lp7n6x-12" style="edgeStyle=orthogonalEdgeStyle;rounded=0;orthogonalLoop=1;jettySize=auto;html=1;entryX=-0.016;entryY=0.079;entryDx=0;entryDy=0;entryPerimeter=0;exitX=0;exitY=0.5;exitDx=0;exitDy=0;fontFamily=Helvetica;fontSize=12;align=center;verticalAlign=middle;" parent="WIyWlLk6GJQsqaUBKTNV-1" source="_SCDaBS0Un0cS2Lp7n6x-13" target="zkfFHV4jXpPFQw0GAbJ--0" edge="1"><mxGeometry relative="1" as="geometry"><mxPoint x="-260" y="513" as="targetPoint"/></mxGeometry></mxCell><mxCell id="_SCDaBS0Un0cS2Lp7n6x-3" style="edgeStyle=orthogonalEdgeStyle;rounded=0;orthogonalLoop=1;jettySize=auto;html=1;entryX=1;entryY=0.5;entryDx=0;entryDy=0;fontFamily=Helvetica;fontSize=12;align=center;verticalAlign=middle;" parent="WIyWlLk6GJQsqaUBKTNV-1" source="_SCDaBS0Un0cS2Lp7n6x-2" target="_SCDaBS0Un0cS2Lp7n6x-13" edge="1"><mxGeometry relative="1" as="geometry"><mxPoint x="-30" y="503" as="targetPoint"/></mxGeometry></mxCell><mxCell id="_SCDaBS0Un0cS2Lp7n6x-18" value="找回密码" style="edgeLabel;html=1;align=center;verticalAlign=middle;resizable=0;points=[];fontFamily=Helvetica;fontSize=12;" parent="_SCDaBS0Un0cS2Lp7n6x-3" vertex="1" connectable="0"><mxGeometry x="0.1611" y="-2" relative="1" as="geometry"><mxPoint x="18" y="2" as="offset"/></mxGeometry></mxCell><mxCell id="_SCDaBS0Un0cS2Lp7n6x-24" value="/message新消息页" style="swimlane;fontStyle=0;align=center;verticalAlign=middle;childLayout=stackLayout;horizontal=1;startSize=26;horizontalStack=0;resizeParent=1;resizeLast=0;collapsible=1;marginBottom=0;rounded=0;shadow=0;strokeWidth=1;fontFamily=Helvetica;fontSize=12;" parent="WIyWlLk6GJQsqaUBKTNV-1" vertex="1"><mxGeometry x="-470" y="618" width="160" height="216" as="geometry"><mxRectangle x="550" y="140" width="160" height="26" as="alternateBounds"/></mxGeometry></mxCell><mxCell id="_SCDaBS0Un0cS2Lp7n6x-25" value="- dict: 注册用户" style="text;align=left;verticalAlign=middle;spacingLeft=4;spacingRight=4;overflow=hidden;rotatable=0;points=[[0,0.5],[1,0.5]];portConstraint=eastwest;fontFamily=Helvetica;fontSize=12;" parent="_SCDaBS0Un0cS2Lp7n6x-24" vertex="1"><mxGeometry y="26" width="160" height="26" as="geometry"/></mxCell><mxCell id="_SCDaBS0Un0cS2Lp7n6x-26" value="+ list: 用户消息" style="text;align=left;verticalAlign=middle;spacingLeft=4;spacingRight=4;overflow=hidden;rotatable=0;points=[[0,0.5],[1,0.5]];portConstraint=eastwest;fontFamily=Helvetica;fontSize=12;" parent="_SCDaBS0Un0cS2Lp7n6x-24" vertex="1"><mxGeometry y="52" width="160" height="26" as="geometry"/></mxCell><mxCell id="_SCDaBS0Un0cS2Lp7n6x-27" value="" style="line;html=1;strokeWidth=1;align=left;verticalAlign=middle;spacingTop=-1;spacingLeft=3;spacingRight=3;rotatable=0;labelPosition=right;points=[];portConstraint=eastwest;fontFamily=Helvetica;fontSize=12;" parent="_SCDaBS0Un0cS2Lp7n6x-24" vertex="1"><mxGeometry y="78" width="160" height="8" as="geometry"/></mxCell><mxCell id="_SCDaBS0Un0cS2Lp7n6x-28" value="+ 书评消息();" style="text;align=left;verticalAlign=middle;spacingLeft=4;spacingRight=4;overflow=hidden;rotatable=0;points=[[0,0.5],[1,0.5]];portConstraint=eastwest;fontFamily=Helvetica;fontSize=12;" parent="_SCDaBS0Un0cS2Lp7n6x-24" vertex="1"><mxGeometry y="86" width="160" height="26" as="geometry"/></mxCell><mxCell id="_SCDaBS0Un0cS2Lp7n6x-30" value="+ 聊天消息();" style="text;align=left;verticalAlign=middle;spacingLeft=4;spacingRight=4;overflow=hidden;rotatable=0;points=[[0,0.5],[1,0.5]];portConstraint=eastwest;fontFamily=Helvetica;fontSize=12;" parent="_SCDaBS0Un0cS2Lp7n6x-24" vertex="1"><mxGeometry y="112" width="160" height="26" as="geometry"/></mxCell><mxCell id="_SCDaBS0Un0cS2Lp7n6x-31" value="+ 圈子消息();" style="text;align=left;verticalAlign=middle;spacingLeft=4;spacingRight=4;overflow=hidden;rotatable=0;points=[[0,0.5],[1,0.5]];portConstraint=eastwest;fontFamily=Helvetica;fontSize=12;" parent="_SCDaBS0Un0cS2Lp7n6x-24" vertex="1"><mxGeometry y="138" width="160" height="26" as="geometry"/></mxCell><mxCell id="_SCDaBS0Un0cS2Lp7n6x-32" value="+ 圈子页面();" style="text;align=left;verticalAlign=middle;spacingLeft=4;spacingRight=4;overflow=hidden;rotatable=0;points=[[0,0.5],[1,0.5]];portConstraint=eastwest;fontFamily=Helvetica;fontSize=12;" parent="_SCDaBS0Un0cS2Lp7n6x-24" vertex="1"><mxGeometry y="164" width="160" height="26" as="geometry"/></mxCell><mxCell id="63" value="+ 返回主页();" style="text;align=left;verticalAlign=middle;spacingLeft=4;spacingRight=4;overflow=hidden;rotatable=0;points=[[0,0.5],[1,0.5]];portConstraint=eastwest;fontFamily=Helvetica;fontSize=12;" vertex="1" parent="_SCDaBS0Un0cS2Lp7n6x-24"><mxGeometry y="190" width="160" height="26" as="geometry"/></mxCell><mxCell id="_SCDaBS0Un0cS2Lp7n6x-33" style="edgeStyle=orthogonalEdgeStyle;rounded=0;orthogonalLoop=1;jettySize=auto;html=1;entryX=1;entryY=0.5;entryDx=0;entryDy=0;fontFamily=Helvetica;fontSize=12;align=center;verticalAlign=middle;exitX=0;exitY=0.5;exitDx=0;exitDy=0;" parent="WIyWlLk6GJQsqaUBKTNV-1" source="_SCDaBS0Un0cS2Lp7n6x-61" target="_SCDaBS0Un0cS2Lp7n6x-28" edge="1"><mxGeometry relative="1" as="geometry"/></mxCell><mxCell id="_SCDaBS0Un0cS2Lp7n6x-35" value="/bookMenu书籍菜单" style="swimlane;fontStyle=0;align=center;verticalAlign=middle;childLayout=stackLayout;horizontal=1;startSize=26;horizontalStack=0;resizeParent=1;resizeLast=0;collapsible=1;marginBottom=0;rounded=0;shadow=0;strokeWidth=1;fontFamily=Helvetica;fontSize=12;" parent="WIyWlLk6GJQsqaUBKTNV-1" vertex="1"><mxGeometry x="320" y="550" width="160" height="190" as="geometry"><mxRectangle x="550" y="140" width="160" height="26" as="alternateBounds"/></mxGeometry></mxCell><mxCell id="_SCDaBS0Un0cS2Lp7n6x-36" value="- dict: 注册用户" style="text;align=left;verticalAlign=middle;spacingLeft=4;spacingRight=4;overflow=hidden;rotatable=0;points=[[0,0.5],[1,0.5]];portConstraint=eastwest;fontFamily=Helvetica;fontSize=12;" parent="_SCDaBS0Un0cS2Lp7n6x-35" vertex="1"><mxGeometry y="26" width="160" height="26" as="geometry"/></mxCell><mxCell id="_SCDaBS0Un0cS2Lp7n6x-37" value="+ list: 书籍预览" style="text;align=left;verticalAlign=middle;spacingLeft=4;spacingRight=4;overflow=hidden;rotatable=0;points=[[0,0.5],[1,0.5]];portConstraint=eastwest;fontFamily=Helvetica;fontSize=12;" parent="_SCDaBS0Un0cS2Lp7n6x-35" vertex="1"><mxGeometry y="52" width="160" height="26" as="geometry"/></mxCell><mxCell id="_SCDaBS0Un0cS2Lp7n6x-38" value="" style="line;html=1;strokeWidth=1;align=left;verticalAlign=middle;spacingTop=-1;spacingLeft=3;spacingRight=3;rotatable=0;labelPosition=right;points=[];portConstraint=eastwest;fontFamily=Helvetica;fontSize=12;" parent="_SCDaBS0Un0cS2Lp7n6x-35" vertex="1"><mxGeometry y="78" width="160" height="8" as="geometry"/></mxCell><mxCell id="cIUitprs8CScgekG14FF-0" value="- 修改书籍();" style="text;align=left;verticalAlign=middle;spacingLeft=4;spacingRight=4;overflow=hidden;rotatable=0;points=[[0,0.5],[1,0.5]];portConstraint=eastwest;fontFamily=Helvetica;fontSize=12;" parent="_SCDaBS0Un0cS2Lp7n6x-35" vertex="1"><mxGeometry y="86" width="160" height="26" as="geometry"/></mxCell><mxCell id="_SCDaBS0Un0cS2Lp7n6x-40" value="+ 阅览书籍();" style="text;align=left;verticalAlign=middle;spacingLeft=4;spacingRight=4;overflow=hidden;rotatable=0;points=[[0,0.5],[1,0.5]];portConstraint=eastwest;fontFamily=Helvetica;fontSize=12;" parent="_SCDaBS0Un0cS2Lp7n6x-35" vertex="1"><mxGeometry y="112" width="160" height="26" as="geometry"/></mxCell><mxCell id="_SCDaBS0Un0cS2Lp7n6x-39" value="+ 搜索书籍();" style="text;align=left;verticalAlign=middle;spacingLeft=4;spacingRight=4;overflow=hidden;rotatable=0;points=[[0,0.5],[1,0.5]];portConstraint=eastwest;fontFamily=Helvetica;fontSize=12;" parent="_SCDaBS0Un0cS2Lp7n6x-35" vertex="1"><mxGeometry y="138" width="160" height="26" as="geometry"/></mxCell><mxCell id="55" value="+ 返回主页();" style="text;align=left;verticalAlign=middle;spacingLeft=4;spacingRight=4;overflow=hidden;rotatable=0;points=[[0,0.5],[1,0.5]];portConstraint=eastwest;fontFamily=Helvetica;fontSize=12;" vertex="1" parent="_SCDaBS0Un0cS2Lp7n6x-35"><mxGeometry y="164" width="160" height="26" as="geometry"/></mxCell><mxCell id="_SCDaBS0Un0cS2Lp7n6x-44" style="edgeStyle=orthogonalEdgeStyle;rounded=0;orthogonalLoop=1;jettySize=auto;html=1;entryX=0;entryY=0.5;entryDx=0;entryDy=0;fontFamily=Helvetica;fontSize=12;align=center;verticalAlign=middle;" parent="WIyWlLk6GJQsqaUBKTNV-1" source="_SCDaBS0Un0cS2Lp7n6x-20" target="_SCDaBS0Un0cS2Lp7n6x-40" edge="1"><mxGeometry relative="1" as="geometry"/></mxCell><mxCell id="_SCDaBS0Un0cS2Lp7n6x-46" value="/journalMenu书评菜单" style="swimlane;fontStyle=0;align=center;verticalAlign=middle;childLayout=stackLayout;horizontal=1;startSize=26;horizontalStack=0;resizeParent=1;resizeLast=0;collapsible=1;marginBottom=0;rounded=0;shadow=0;strokeWidth=1;fontFamily=Helvetica;fontSize=12;" parent="WIyWlLk6GJQsqaUBKTNV-1" vertex="1"><mxGeometry x="320" y="820" width="160" height="190" as="geometry"><mxRectangle x="550" y="140" width="160" height="26" as="alternateBounds"/></mxGeometry></mxCell><mxCell id="_SCDaBS0Un0cS2Lp7n6x-47" value="- dict: 注册用户" style="text;align=left;verticalAlign=middle;spacingLeft=4;spacingRight=4;overflow=hidden;rotatable=0;points=[[0,0.5],[1,0.5]];portConstraint=eastwest;fontFamily=Helvetica;fontSize=12;" parent="_SCDaBS0Un0cS2Lp7n6x-46" vertex="1"><mxGeometry y="26" width="160" height="26" as="geometry"/></mxCell><mxCell id="_SCDaBS0Un0cS2Lp7n6x-48" value="+ list: 信息预览" style="text;align=left;verticalAlign=middle;spacingLeft=4;spacingRight=4;overflow=hidden;rotatable=0;points=[[0,0.5],[1,0.5]];portConstraint=eastwest;fontFamily=Helvetica;fontSize=12;" parent="_SCDaBS0Un0cS2Lp7n6x-46" vertex="1"><mxGeometry y="52" width="160" height="26" as="geometry"/></mxCell><mxCell id="_SCDaBS0Un0cS2Lp7n6x-49" value="" style="line;html=1;strokeWidth=1;align=left;verticalAlign=middle;spacingTop=-1;spacingLeft=3;spacingRight=3;rotatable=0;labelPosition=right;points=[];portConstraint=eastwest;fontFamily=Helvetica;fontSize=12;" parent="_SCDaBS0Un0cS2Lp7n6x-46" vertex="1"><mxGeometry y="78" width="160" height="8" as="geometry"/></mxCell><mxCell id="_SCDaBS0Un0cS2Lp7n6x-50" value="+ 搜索书评();" style="text;align=left;verticalAlign=middle;spacingLeft=4;spacingRight=4;overflow=hidden;rotatable=0;points=[[0,0.5],[1,0.5]];portConstraint=eastwest;fontFamily=Helvetica;fontSize=12;" parent="_SCDaBS0Un0cS2Lp7n6x-46" vertex="1"><mxGeometry y="86" width="160" height="26" as="geometry"/></mxCell><mxCell id="_SCDaBS0Un0cS2Lp7n6x-51" value="+ 阅读书评();" style="text;align=left;verticalAlign=middle;spacingLeft=4;spacingRight=4;overflow=hidden;rotatable=0;points=[[0,0.5],[1,0.5]];portConstraint=eastwest;fontFamily=Helvetica;fontSize=12;" parent="_SCDaBS0Un0cS2Lp7n6x-46" vertex="1"><mxGeometry y="112" width="160" height="26" as="geometry"/></mxCell><mxCell id="_SCDaBS0Un0cS2Lp7n6x-52" value="- 创建书评();" style="text;align=left;verticalAlign=middle;spacingLeft=4;spacingRight=4;overflow=hidden;rotatable=0;points=[[0,0.5],[1,0.5]];portConstraint=eastwest;fontFamily=Helvetica;fontSize=12;" parent="_SCDaBS0Un0cS2Lp7n6x-46" vertex="1"><mxGeometry y="138" width="160" height="26" as="geometry"/></mxCell><mxCell id="_SCDaBS0Un0cS2Lp7n6x-53" value="+ 返回主页();" style="text;align=left;verticalAlign=middle;spacingLeft=4;spacingRight=4;overflow=hidden;rotatable=0;points=[[0,0.5],[1,0.5]];portConstraint=eastwest;fontFamily=Helvetica;fontSize=12;" parent="_SCDaBS0Un0cS2Lp7n6x-46" vertex="1"><mxGeometry y="164" width="160" height="26" as="geometry"/></mxCell><object label="/profile个人简历" yes="" ok="" id="_SCDaBS0Un0cS2Lp7n6x-57"><mxCell style="swimlane;fontStyle=0;align=center;verticalAlign=middle;childLayout=stackLayout;horizontal=1;startSize=26;horizontalStack=0;resizeParent=1;resizeLast=0;collapsible=1;marginBottom=0;rounded=0;shadow=0;strokeWidth=1;fontFamily=Helvetica;fontSize=12;" parent="WIyWlLk6GJQsqaUBKTNV-1" vertex="1"><mxGeometry x="-230" y="618" width="160" height="138" as="geometry"><mxRectangle x="550" y="140" width="160" height="26" as="alternateBounds"/></mxGeometry></mxCell></object><mxCell id="_SCDaBS0Un0cS2Lp7n6x-58" value="- dict: 注册用户" style="text;align=left;verticalAlign=middle;spacingLeft=4;spacingRight=4;overflow=hidden;rotatable=0;points=[[0,0.5],[1,0.5]];portConstraint=eastwest;fontFamily=Helvetica;fontSize=12;" parent="_SCDaBS0Un0cS2Lp7n6x-57" vertex="1"><mxGeometry y="26" width="160" height="26" as="geometry"/></mxCell><mxCell id="_SCDaBS0Un0cS2Lp7n6x-59" value="+ list: 用户信息" style="text;align=left;verticalAlign=middle;spacingLeft=4;spacingRight=4;overflow=hidden;rotatable=0;points=[[0,0.5],[1,0.5]];portConstraint=eastwest;fontFamily=Helvetica;fontSize=12;" parent="_SCDaBS0Un0cS2Lp7n6x-57" vertex="1"><mxGeometry y="52" width="160" height="26" as="geometry"/></mxCell><mxCell id="_SCDaBS0Un0cS2Lp7n6x-60" value="" style="line;html=1;strokeWidth=1;align=left;verticalAlign=middle;spacingTop=-1;spacingLeft=3;spacingRight=3;rotatable=0;labelPosition=right;points=[];portConstraint=eastwest;fontFamily=Helvetica;fontSize=12;" parent="_SCDaBS0Un0cS2Lp7n6x-57" vertex="1"><mxGeometry y="78" width="160" height="8" as="geometry"/></mxCell><mxCell id="_SCDaBS0Un0cS2Lp7n6x-61" value="+ 信息详情页();" style="text;align=left;verticalAlign=middle;spacingLeft=4;spacingRight=4;overflow=hidden;rotatable=0;points=[[0,0.5],[1,0.5]];portConstraint=eastwest;fontFamily=Helvetica;fontSize=12;" parent="_SCDaBS0Un0cS2Lp7n6x-57" vertex="1"><mxGeometry y="86" width="160" height="26" as="geometry"/></mxCell><mxCell id="61" value="+ 返回主页();" style="text;align=left;verticalAlign=middle;spacingLeft=4;spacingRight=4;overflow=hidden;rotatable=0;points=[[0,0.5],[1,0.5]];portConstraint=eastwest;fontFamily=Helvetica;fontSize=12;" vertex="1" parent="_SCDaBS0Un0cS2Lp7n6x-57"><mxGeometry y="112" width="160" height="26" as="geometry"/></mxCell><mxCell id="_SCDaBS0Un0cS2Lp7n6x-67" value="/group圈子页面" style="swimlane;fontStyle=0;align=center;verticalAlign=middle;childLayout=stackLayout;horizontal=1;startSize=26;horizontalStack=0;resizeParent=1;resizeLast=0;collapsible=1;marginBottom=0;rounded=0;shadow=0;strokeWidth=1;fontFamily=Helvetica;fontSize=12;" parent="WIyWlLk6GJQsqaUBKTNV-1" vertex="1"><mxGeometry x="-470" y="870" width="160" height="216" as="geometry"><mxRectangle x="550" y="140" width="160" height="26" as="alternateBounds"/></mxGeometry></mxCell><mxCell id="_SCDaBS0Un0cS2Lp7n6x-68" value="- dict: 注册用户" style="text;align=left;verticalAlign=middle;spacingLeft=4;spacingRight=4;overflow=hidden;rotatable=0;points=[[0,0.5],[1,0.5]];portConstraint=eastwest;fontFamily=Helvetica;fontSize=12;" parent="_SCDaBS0Un0cS2Lp7n6x-67" vertex="1"><mxGeometry y="26" width="160" height="26" as="geometry"/></mxCell><mxCell id="cIUitprs8CScgekG14FF-26" value="+ int: 贴主id" style="text;align=left;verticalAlign=middle;spacingLeft=4;spacingRight=4;overflow=hidden;rotatable=0;points=[[0,0.5],[1,0.5]];portConstraint=eastwest;fontFamily=Helvetica;fontSize=12;" parent="_SCDaBS0Un0cS2Lp7n6x-67" vertex="1"><mxGeometry y="52" width="160" height="26" as="geometry"/></mxCell><mxCell id="cIUitprs8CScgekG14FF-28" value="+ list: 回复预览" style="text;align=left;verticalAlign=middle;spacingLeft=4;spacingRight=4;overflow=hidden;rotatable=0;points=[[0,0.5],[1,0.5]];portConstraint=eastwest;fontFamily=Helvetica;fontSize=12;" parent="_SCDaBS0Un0cS2Lp7n6x-67" vertex="1"><mxGeometry y="78" width="160" height="26" as="geometry"/></mxCell><mxCell id="cIUitprs8CScgekG14FF-30" value="+ list 圈子信息" style="text;align=left;verticalAlign=middle;spacingLeft=4;spacingRight=4;overflow=hidden;rotatable=0;points=[[0,0.5],[1,0.5]];portConstraint=eastwest;fontFamily=Helvetica;fontSize=12;" parent="_SCDaBS0Un0cS2Lp7n6x-67" vertex="1"><mxGeometry y="104" width="160" height="26" as="geometry"/></mxCell><mxCell id="_SCDaBS0Un0cS2Lp7n6x-70" value="" style="line;html=1;strokeWidth=1;align=left;verticalAlign=middle;spacingTop=-1;spacingLeft=3;spacingRight=3;rotatable=0;labelPosition=right;points=[];portConstraint=eastwest;fontFamily=Helvetica;fontSize=12;" parent="_SCDaBS0Un0cS2Lp7n6x-67" vertex="1"><mxGeometry y="130" width="160" height="8" as="geometry"/></mxCell><mxCell id="_SCDaBS0Un0cS2Lp7n6x-75" value="+ 创建圈子();" style="text;align=left;verticalAlign=middle;spacingLeft=4;spacingRight=4;overflow=hidden;rotatable=0;points=[[0,0.5],[1,0.5]];portConstraint=eastwest;fontFamily=Helvetica;fontSize=12;" parent="_SCDaBS0Un0cS2Lp7n6x-67" vertex="1"><mxGeometry y="138" width="160" height="26" as="geometry"/></mxCell><mxCell id="47" value="+ 修改圈子();" style="text;align=left;verticalAlign=middle;spacingLeft=4;spacingRight=4;overflow=hidden;rotatable=0;points=[[0,0.5],[1,0.5]];portConstraint=eastwest;fontFamily=Helvetica;fontSize=12;" vertex="1" parent="_SCDaBS0Un0cS2Lp7n6x-67"><mxGeometry y="164" width="160" height="26" as="geometry"/></mxCell><mxCell id="59" value="+ 返回主页();" style="text;align=left;verticalAlign=middle;spacingLeft=4;spacingRight=4;overflow=hidden;rotatable=0;points=[[0,0.5],[1,0.5]];portConstraint=eastwest;fontFamily=Helvetica;fontSize=12;" vertex="1" parent="_SCDaBS0Un0cS2Lp7n6x-67"><mxGeometry y="190" width="160" height="26" as="geometry"/></mxCell><mxCell id="_SCDaBS0Un0cS2Lp7n6x-76" value="/book书籍页" style="swimlane;fontStyle=0;align=center;verticalAlign=middle;childLayout=stackLayout;horizontal=1;startSize=26;horizontalStack=0;resizeParent=1;resizeLast=0;collapsible=1;marginBottom=0;rounded=0;shadow=0;strokeWidth=1;fontFamily=Helvetica;fontSize=12;" parent="WIyWlLk6GJQsqaUBKTNV-1" vertex="1"><mxGeometry x="560" y="620" width="160" height="164" as="geometry"><mxRectangle x="550" y="140" width="160" height="26" as="alternateBounds"/></mxGeometry></mxCell><mxCell id="_SCDaBS0Un0cS2Lp7n6x-77" value="- dict: 注册用户" style="text;align=left;verticalAlign=middle;spacingLeft=4;spacingRight=4;overflow=hidden;rotatable=0;points=[[0,0.5],[1,0.5]];portConstraint=eastwest;fontFamily=Helvetica;fontSize=12;" parent="_SCDaBS0Un0cS2Lp7n6x-76" vertex="1"><mxGeometry y="26" width="160" height="26" as="geometry"/></mxCell><mxCell id="_SCDaBS0Un0cS2Lp7n6x-78" value="+ list: 书籍信息" style="text;align=left;verticalAlign=middle;spacingLeft=4;spacingRight=4;overflow=hidden;rotatable=0;points=[[0,0.5],[1,0.5]];portConstraint=eastwest;fontFamily=Helvetica;fontSize=12;" parent="_SCDaBS0Un0cS2Lp7n6x-76" vertex="1"><mxGeometry y="52" width="160" height="26" as="geometry"/></mxCell><mxCell id="_SCDaBS0Un0cS2Lp7n6x-79" value="" style="line;html=1;strokeWidth=1;align=left;verticalAlign=middle;spacingTop=-1;spacingLeft=3;spacingRight=3;rotatable=0;labelPosition=right;points=[];portConstraint=eastwest;fontFamily=Helvetica;fontSize=12;" parent="_SCDaBS0Un0cS2Lp7n6x-76" vertex="1"><mxGeometry y="78" width="160" height="8" as="geometry"/></mxCell><mxCell id="_SCDaBS0Un0cS2Lp7n6x-97" value="+ 书籍预览();" style="text;align=left;verticalAlign=middle;spacingLeft=4;spacingRight=4;overflow=hidden;rotatable=0;points=[[0,0.5],[1,0.5]];portConstraint=eastwest;fontFamily=Helvetica;fontSize=12;" parent="_SCDaBS0Un0cS2Lp7n6x-76" vertex="1"><mxGeometry y="86" width="160" height="26" as="geometry"/></mxCell><mxCell id="_SCDaBS0Un0cS2Lp7n6x-82" value="+ 阅读书籍();" style="text;align=left;verticalAlign=middle;spacingLeft=4;spacingRight=4;overflow=hidden;rotatable=0;points=[[0,0.5],[1,0.5]];portConstraint=eastwest;fontFamily=Helvetica;fontSize=12;" parent="_SCDaBS0Un0cS2Lp7n6x-76" vertex="1"><mxGeometry y="112" width="160" height="26" as="geometry"/></mxCell><mxCell id="56" value="+ 返回主页();" style="text;align=left;verticalAlign=middle;spacingLeft=4;spacingRight=4;overflow=hidden;rotatable=0;points=[[0,0.5],[1,0.5]];portConstraint=eastwest;fontFamily=Helvetica;fontSize=12;" vertex="1" parent="_SCDaBS0Un0cS2Lp7n6x-76"><mxGeometry y="138" width="160" height="26" as="geometry"/></mxCell><mxCell id="_SCDaBS0Un0cS2Lp7n6x-86" style="edgeStyle=orthogonalEdgeStyle;rounded=0;orthogonalLoop=1;jettySize=auto;html=1;entryX=0;entryY=0.5;entryDx=0;entryDy=0;" parent="WIyWlLk6GJQsqaUBKTNV-1" source="_SCDaBS0Un0cS2Lp7n6x-40" edge="1"><mxGeometry relative="1" as="geometry"><mxPoint x="560" y="745" as="targetPoint"/><Array as="points"><mxPoint x="520" y="681"/><mxPoint x="520" y="745"/></Array></mxGeometry></mxCell><mxCell id="_SCDaBS0Un0cS2Lp7n6x-100" value="/journal创建书评页" style="swimlane;fontStyle=0;align=center;verticalAlign=middle;childLayout=stackLayout;horizontal=1;startSize=26;horizontalStack=0;resizeParent=1;resizeLast=0;collapsible=1;marginBottom=0;rounded=0;shadow=0;strokeWidth=1;fontFamily=Helvetica;fontSize=12;" parent="WIyWlLk6GJQsqaUBKTNV-1" vertex="1"><mxGeometry x="560" y="820" width="160" height="138" as="geometry"><mxRectangle x="550" y="140" width="160" height="26" as="alternateBounds"/></mxGeometry></mxCell><mxCell id="_SCDaBS0Un0cS2Lp7n6x-101" value="- dict: 注册用户" style="text;align=left;verticalAlign=middle;spacingLeft=4;spacingRight=4;overflow=hidden;rotatable=0;points=[[0,0.5],[1,0.5]];portConstraint=eastwest;fontFamily=Helvetica;fontSize=12;" parent="_SCDaBS0Un0cS2Lp7n6x-100" vertex="1"><mxGeometry y="26" width="160" height="26" as="geometry"/></mxCell><mxCell id="_SCDaBS0Un0cS2Lp7n6x-102" value="+ list: 书籍预览" style="text;align=left;verticalAlign=middle;spacingLeft=4;spacingRight=4;overflow=hidden;rotatable=0;points=[[0,0.5],[1,0.5]];portConstraint=eastwest;fontFamily=Helvetica;fontSize=12;" parent="_SCDaBS0Un0cS2Lp7n6x-100" vertex="1"><mxGeometry y="52" width="160" height="26" as="geometry"/></mxCell><mxCell id="_SCDaBS0Un0cS2Lp7n6x-103" value="" style="line;html=1;strokeWidth=1;align=left;verticalAlign=middle;spacingTop=-1;spacingLeft=3;spacingRight=3;rotatable=0;labelPosition=right;points=[];portConstraint=eastwest;fontFamily=Helvetica;fontSize=12;" parent="_SCDaBS0Un0cS2Lp7n6x-100" vertex="1"><mxGeometry y="78" width="160" height="8" as="geometry"/></mxCell><mxCell id="_SCDaBS0Un0cS2Lp7n6x-104" value="+ 参考书目();" style="text;align=left;verticalAlign=middle;spacingLeft=4;spacingRight=4;overflow=hidden;rotatable=0;points=[[0,0.5],[1,0.5]];portConstraint=eastwest;fontFamily=Helvetica;fontSize=12;" parent="_SCDaBS0Un0cS2Lp7n6x-100" vertex="1"><mxGeometry y="86" width="160" height="26" as="geometry"/></mxCell><mxCell id="57" value="+ 返回主页();" style="text;align=left;verticalAlign=middle;spacingLeft=4;spacingRight=4;overflow=hidden;rotatable=0;points=[[0,0.5],[1,0.5]];portConstraint=eastwest;fontFamily=Helvetica;fontSize=12;" vertex="1" parent="_SCDaBS0Un0cS2Lp7n6x-100"><mxGeometry y="112" width="160" height="26" as="geometry"/></mxCell><mxCell id="cIUitprs8CScgekG14FF-31" value="/createGroup创建圈子" style="swimlane;fontStyle=0;align=center;verticalAlign=middle;childLayout=stackLayout;horizontal=1;startSize=26;horizontalStack=0;resizeParent=1;resizeLast=0;collapsible=1;marginBottom=0;rounded=0;shadow=0;strokeWidth=1;fontFamily=Helvetica;fontSize=12;" parent="WIyWlLk6GJQsqaUBKTNV-1" vertex="1"><mxGeometry x="-230" y="833" width="160" height="112" as="geometry"><mxRectangle x="550" y="140" width="160" height="26" as="alternateBounds"/></mxGeometry></mxCell><mxCell id="cIUitprs8CScgekG14FF-37" value="+ list: 圈子信息" style="text;align=left;verticalAlign=middle;spacingLeft=4;spacingRight=4;overflow=hidden;rotatable=0;points=[[0,0.5],[1,0.5]];portConstraint=eastwest;fontFamily=Helvetica;fontSize=12;" parent="cIUitprs8CScgekG14FF-31" vertex="1"><mxGeometry y="26" width="160" height="26" as="geometry"/></mxCell><mxCell id="cIUitprs8CScgekG14FF-38" value="" style="line;html=1;strokeWidth=1;align=left;verticalAlign=middle;spacingTop=-1;spacingLeft=3;spacingRight=3;rotatable=0;labelPosition=right;points=[];portConstraint=eastwest;fontFamily=Helvetica;fontSize=12;" parent="cIUitprs8CScgekG14FF-31" vertex="1"><mxGeometry y="52" width="160" height="8" as="geometry"/></mxCell><mxCell id="cIUitprs8CScgekG14FF-39" value="+ 更新圈子();" style="text;align=left;verticalAlign=middle;spacingLeft=4;spacingRight=4;overflow=hidden;rotatable=0;points=[[0,0.5],[1,0.5]];portConstraint=eastwest;fontFamily=Helvetica;fontSize=12;" parent="cIUitprs8CScgekG14FF-31" vertex="1"><mxGeometry y="60" width="160" height="26" as="geometry"/></mxCell><mxCell id="58" value="+ 返回主页();" style="text;align=left;verticalAlign=middle;spacingLeft=4;spacingRight=4;overflow=hidden;rotatable=0;points=[[0,0.5],[1,0.5]];portConstraint=eastwest;fontFamily=Helvetica;fontSize=12;" vertex="1" parent="cIUitprs8CScgekG14FF-31"><mxGeometry y="86" width="160" height="26" as="geometry"/></mxCell><mxCell id="2" value="/editGroup编辑圈子" style="swimlane;fontStyle=0;align=center;verticalAlign=middle;childLayout=stackLayout;horizontal=1;startSize=26;horizontalStack=0;resizeParent=1;resizeLast=0;collapsible=1;marginBottom=0;rounded=0;shadow=0;strokeWidth=1;fontFamily=Helvetica;fontSize=12;" parent="WIyWlLk6GJQsqaUBKTNV-1" vertex="1"><mxGeometry x="40" y="989" width="160" height="116" as="geometry"><mxRectangle x="550" y="140" width="160" height="26" as="alternateBounds"/></mxGeometry></mxCell><mxCell id="8" value="-int: 贴主id&#10;+list:圈子信息" style="text;align=left;verticalAlign=middle;spacingLeft=4;spacingRight=4;overflow=hidden;rotatable=0;points=[[0,0.5],[1,0.5]];portConstraint=eastwest;fontFamily=Helvetica;fontSize=12;" parent="2" vertex="1"><mxGeometry y="26" width="160" height="36" as="geometry"/></mxCell><mxCell id="9" value="" style="line;html=1;strokeWidth=1;align=left;verticalAlign=middle;spacingTop=-1;spacingLeft=3;spacingRight=3;rotatable=0;labelPosition=right;points=[];portConstraint=eastwest;fontFamily=Helvetica;fontSize=12;" parent="2" vertex="1"><mxGeometry y="62" width="160" height="8" as="geometry"/></mxCell><mxCell id="62" value="+ 返回主页();" style="text;align=left;verticalAlign=middle;spacingLeft=4;spacingRight=4;overflow=hidden;rotatable=0;points=[[0,0.5],[1,0.5]];portConstraint=eastwest;fontFamily=Helvetica;fontSize=12;" vertex="1" parent="2"><mxGeometry y="70" width="160" height="26" as="geometry"/></mxCell><mxCell id="10" value="+ 删除圈子();" style="text;align=left;verticalAlign=middle;spacingLeft=4;spacingRight=4;overflow=hidden;rotatable=0;points=[[0,0.5],[1,0.5]];portConstraint=eastwest;fontFamily=Helvetica;fontSize=12;" parent="2" vertex="1"><mxGeometry y="96" width="160" height="20" as="geometry"/></mxCell><mxCell id="17" value="" style="endArrow=classic;html=1;rounded=0;exitX=0;exitY=0.5;exitDx=0;exitDy=0;entryX=1;entryY=0.5;entryDx=0;entryDy=0;edgeStyle=orthogonalEdgeStyle;" edge="1" parent="WIyWlLk6GJQsqaUBKTNV-1" source="cIUitprs8CScgekG14FF-39" target="cIUitprs8CScgekG14FF-28"><mxGeometry width="50" height="50" relative="1" as="geometry"><mxPoint x="-390" y="900" as="sourcePoint"/><mxPoint x="-340" y="850" as="targetPoint"/></mxGeometry></mxCell><mxCell id="18" value="" style="endArrow=classic;html=1;rounded=0;entryX=0;entryY=0.5;entryDx=0;entryDy=0;edgeStyle=orthogonalEdgeStyle;exitX=0;exitY=0.5;exitDx=0;exitDy=0;" edge="1" parent="WIyWlLk6GJQsqaUBKTNV-1" source="_SCDaBS0Un0cS2Lp7n6x-32" target="cIUitprs8CScgekG14FF-28"><mxGeometry width="50" height="50" relative="1" as="geometry"><mxPoint x="-590" y="780" as="sourcePoint"/><mxPoint x="-60" y="810" as="targetPoint"/><Array as="points"><mxPoint x="-500" y="795"/><mxPoint x="-500" y="961"/></Array></mxGeometry></mxCell><mxCell id="19" value="" style="endArrow=classic;html=1;rounded=0;edgeStyle=orthogonalEdgeStyle;exitX=0.211;exitY=0.992;exitDx=0;exitDy=0;exitPerimeter=0;" edge="1" parent="WIyWlLk6GJQsqaUBKTNV-1" source="_SCDaBS0Un0cS2Lp7n6x-23"><mxGeometry width="50" height="50" relative="1" as="geometry"><mxPoint x="30" y="890" as="sourcePoint"/><mxPoint x="-310" y="1010" as="targetPoint"/><Array as="points"><mxPoint x="78" y="860"/><mxPoint x="78" y="900"/><mxPoint x="10" y="900"/><mxPoint x="10" y="1010"/></Array></mxGeometry></mxCell><mxCell id="48" value="" style="endArrow=classic;html=1;rounded=0;entryX=1;entryY=0.5;entryDx=0;entryDy=0;exitX=0;exitY=0.5;exitDx=0;exitDy=0;edgeStyle=orthogonalEdgeStyle;" edge="1" parent="WIyWlLk6GJQsqaUBKTNV-1" source="_SCDaBS0Un0cS2Lp7n6x-21" target="_SCDaBS0Un0cS2Lp7n6x-61"><mxGeometry width="50" height="50" relative="1" as="geometry"><mxPoint x="110" y="810" as="sourcePoint"/><mxPoint x="160" y="760" as="targetPoint"/></mxGeometry></mxCell><mxCell id="49" value="" style="endArrow=classic;html=1;rounded=0;entryX=-0.009;entryY=0.089;entryDx=0;entryDy=0;entryPerimeter=0;exitX=1;exitY=0.5;exitDx=0;exitDy=0;edgeStyle=orthogonalEdgeStyle;" edge="1" parent="WIyWlLk6GJQsqaUBKTNV-1" source="_SCDaBS0Un0cS2Lp7n6x-22" target="_SCDaBS0Un0cS2Lp7n6x-46"><mxGeometry width="50" height="50" relative="1" as="geometry"><mxPoint x="500" y="920" as="sourcePoint"/><mxPoint x="550" y="870" as="targetPoint"/><Array as="points"><mxPoint x="260" y="795"/><mxPoint x="260" y="837"/></Array></mxGeometry></mxCell><mxCell id="53" value="" style="endArrow=classic;html=1;rounded=0;exitX=1;exitY=0.5;exitDx=0;exitDy=0;edgeStyle=orthogonalEdgeStyle;" edge="1" parent="WIyWlLk6GJQsqaUBKTNV-1" source="_SCDaBS0Un0cS2Lp7n6x-52"><mxGeometry width="50" height="50" relative="1" as="geometry"><mxPoint x="460" y="850" as="sourcePoint"/><mxPoint x="560" y="833" as="targetPoint"/><Array as="points"><mxPoint x="520" y="971"/><mxPoint x="520" y="833"/></Array></mxGeometry></mxCell><mxCell id="54" value="" style="endArrow=classic;html=1;rounded=0;entryX=1;entryY=0.5;entryDx=0;entryDy=0;exitX=1;exitY=0.5;exitDx=0;exitDy=0;edgeStyle=orthogonalEdgeStyle;" edge="1" parent="WIyWlLk6GJQsqaUBKTNV-1" source="_SCDaBS0Un0cS2Lp7n6x-104" target="_SCDaBS0Un0cS2Lp7n6x-78"><mxGeometry width="50" height="50" relative="1" as="geometry"><mxPoint x="460" y="850" as="sourcePoint"/><mxPoint x="510" y="800" as="targetPoint"/><Array as="points"><mxPoint x="750" y="919"/><mxPoint x="750" y="685"/></Array></mxGeometry></mxCell><mxCell id="64" value="" style="endArrow=classic;html=1;rounded=0;exitX=1;exitY=0.5;exitDx=0;exitDy=0;edgeStyle=orthogonalEdgeStyle;" edge="1" parent="WIyWlLk6GJQsqaUBKTNV-1" source="47" target="2"><mxGeometry width="50" height="50" relative="1" as="geometry"><mxPoint x="-130" y="990" as="sourcePoint"/><mxPoint x="-80" y="940" as="targetPoint"/></mxGeometry></mxCell><mxCell id="65" value="" style="endArrow=classic;html=1;rounded=0;edgeStyle=orthogonalEdgeStyle;exitX=1;exitY=0.5;exitDx=0;exitDy=0;" edge="1" parent="WIyWlLk6GJQsqaUBKTNV-1" source="62" target="zkfFHV4jXpPFQw0GAbJ--17"><mxGeometry width="50" height="50" relative="1" as="geometry"><mxPoint x="-40" y="970" as="sourcePoint"/><mxPoint x="10" y="920" as="targetPoint"/><Array as="points"><mxPoint x="250" y="1072"/><mxPoint x="250" y="920"/><mxPoint x="120" y="920"/></Array></mxGeometry></mxCell><mxCell id="66" value="" style="endArrow=classic;html=1;rounded=0;edgeStyle=orthogonalEdgeStyle;exitX=1;exitY=0.5;exitDx=0;exitDy=0;" edge="1" parent="WIyWlLk6GJQsqaUBKTNV-1" source="59" target="zkfFHV4jXpPFQw0GAbJ--17"><mxGeometry width="50" height="50" relative="1" as="geometry"><mxPoint x="-160" y="1000" as="sourcePoint"/><mxPoint x="-10" y="1140" as="targetPoint"/><Array as="points"><mxPoint y="1073"/><mxPoint y="1140"/><mxPoint x="250" y="1140"/><mxPoint x="250" y="920"/><mxPoint x="120" y="920"/></Array></mxGeometry></mxCell><mxCell id="68" value="" style="endArrow=classic;html=1;rounded=0;edgeStyle=orthogonalEdgeStyle;exitX=0;exitY=0.5;exitDx=0;exitDy=0;entryX=0.994;entryY=0.096;entryDx=0;entryDy=0;entryPerimeter=0;" edge="1" parent="WIyWlLk6GJQsqaUBKTNV-1" source="cIUitprs8CScgekG14FF-29" target="cIUitprs8CScgekG14FF-31"><mxGeometry width="50" height="50" relative="1" as="geometry"><mxPoint x="-50" y="900" as="sourcePoint"/><mxPoint y="850" as="targetPoint"/><Array as="points"><mxPoint x="-30" y="821"/><mxPoint x="-30" y="844"/></Array></mxGeometry></mxCell><mxCell id="69" value="" style="endArrow=classic;html=1;rounded=0;edgeStyle=orthogonalEdgeStyle;exitX=1;exitY=0.5;exitDx=0;exitDy=0;entryX=0;entryY=0.5;entryDx=0;entryDy=0;" edge="1" parent="WIyWlLk6GJQsqaUBKTNV-1" source="58" target="_SCDaBS0Un0cS2Lp7n6x-23"><mxGeometry width="50" height="50" relative="1" as="geometry"><mxPoint x="-50" y="900" as="sourcePoint"/><mxPoint y="850" as="targetPoint"/><Array as="points"><mxPoint x="-10" y="932"/><mxPoint x="-10" y="847"/></Array></mxGeometry></mxCell><mxCell id="70" value="" style="endArrow=classic;html=1;rounded=0;entryX=0;entryY=0.5;entryDx=0;entryDy=0;exitX=1;exitY=0.5;exitDx=0;exitDy=0;edgeStyle=orthogonalEdgeStyle;" edge="1" parent="WIyWlLk6GJQsqaUBKTNV-1" source="61" target="_SCDaBS0Un0cS2Lp7n6x-22"><mxGeometry width="50" height="50" relative="1" as="geometry"><mxPoint x="-170" y="840" as="sourcePoint"/><mxPoint x="-120" y="790" as="targetPoint"/><Array as="points"><mxPoint x="-30" y="743"/><mxPoint x="-30" y="795"/></Array></mxGeometry></mxCell><mxCell id="71" value="" style="endArrow=classic;html=1;rounded=0;edgeStyle=orthogonalEdgeStyle;entryX=0;entryY=0.5;entryDx=0;entryDy=0;exitX=1;exitY=0.5;exitDx=0;exitDy=0;" edge="1" parent="WIyWlLk6GJQsqaUBKTNV-1" source="63" target="_SCDaBS0Un0cS2Lp7n6x-22"><mxGeometry width="50" height="50" relative="1" as="geometry"><mxPoint x="-160" y="840" as="sourcePoint"/><mxPoint x="-110" y="790" as="targetPoint"/></mxGeometry></mxCell><mxCell id="72" value="" style="endArrow=classic;html=1;rounded=0;edgeStyle=orthogonalEdgeStyle;entryX=1;entryY=0.5;entryDx=0;entryDy=0;exitX=0;exitY=0.5;exitDx=0;exitDy=0;" edge="1" parent="WIyWlLk6GJQsqaUBKTNV-1" source="55" target="_SCDaBS0Un0cS2Lp7n6x-21"><mxGeometry width="50" height="50" relative="1" as="geometry"><mxPoint x="330" y="850" as="sourcePoint"/><mxPoint x="380" y="800" as="targetPoint"/><Array as="points"><mxPoint x="290" y="727"/><mxPoint x="290" y="769"/></Array></mxGeometry></mxCell><mxCell id="73" value="" style="endArrow=classic;html=1;rounded=0;entryX=1;entryY=0.5;entryDx=0;entryDy=0;exitX=0;exitY=0.5;exitDx=0;exitDy=0;edgeStyle=orthogonalEdgeStyle;" edge="1" parent="WIyWlLk6GJQsqaUBKTNV-1" source="56" target="_SCDaBS0Un0cS2Lp7n6x-21"><mxGeometry width="50" height="50" relative="1" as="geometry"><mxPoint x="360" y="850" as="sourcePoint"/><mxPoint x="410" y="800" as="targetPoint"/><Array as="points"><mxPoint x="560" y="769"/></Array></mxGeometry></mxCell><mxCell id="74" value="" style="endArrow=classic;html=1;rounded=0;edgeStyle=orthogonalEdgeStyle;" edge="1" parent="WIyWlLk6GJQsqaUBKTNV-1" target="zkfFHV4jXpPFQw0GAbJ--17"><mxGeometry width="50" height="50" relative="1" as="geometry"><mxPoint x="320" y="900" as="sourcePoint"/><mxPoint x="370" y="850" as="targetPoint"/><Array as="points"><mxPoint x="320" y="1000"/><mxPoint x="250" y="1000"/><mxPoint x="250" y="920"/><mxPoint x="120" y="920"/></Array></mxGeometry></mxCell><mxCell id="75" value="" style="endArrow=classic;html=1;rounded=0;edgeStyle=orthogonalEdgeStyle;exitX=0.494;exitY=1.067;exitDx=0;exitDy=0;exitPerimeter=0;" edge="1" parent="WIyWlLk6GJQsqaUBKTNV-1" source="57" target="zkfFHV4jXpPFQw0GAbJ--17"><mxGeometry width="50" height="50" relative="1" as="geometry"><mxPoint x="420" y="1000" as="sourcePoint"/><mxPoint x="470" y="950" as="targetPoint"/><Array as="points"><mxPoint x="639" y="1000"/><mxPoint x="640" y="1040"/><mxPoint x="250" y="1040"/><mxPoint x="250" y="920"/><mxPoint x="120" y="920"/></Array></mxGeometry></mxCell></root></mxGraphModel></diagram></mxfile>